# xmcd
#
# Track frame offsets:
#	150
#	20301
#	36290
#	53834
#	71179
#	88617
#	106056
#	120558
#	137700
#	157641
#	175799
#	191802
#	215150
#	231912
#	245357
#	268648
#	285979
#
# Disc length: 4107 seconds
#
# Revision: 0
# Processed by: cddbd v1.5.1PL2 Copyright (c) Steve Scherf et al.
# Submitted via: audiograbber 1.83.01
#
DISCID=ea100911
DTITLE=хамос йаккиягс - ацапг ыяа лгдем
DYEAR=1998
DGENRE=екк поп
TTITLE0=ле гсувг сумеидгсг  (стг лаваияиа т' акати)
TTITLE1=посо лоу кеипеис 
TTITLE2=лг ле вакас 
TTITLE3=лиа суцмылг 
TTITLE4=ема тсицаяо айола коипом 
TTITLE5=анифы пио покка 
TTITLE6=ацапг ыяа лгдем 
TTITLE7=ломо ма цуяисеис 
TTITLE8=ломаниа лоу 
TTITLE9=ои ояйои тгс ацапгс 
TTITLE10=ам фгтацес суцмылг лиа жояа 
TTITLE11=цеиа соу йаи ма л' ацапас 
TTITLE12=жикаяайи поу еисаи  (стгм лмглг тоу ERIC) 
TTITLE13=ема бибкио 
TTITLE14=цеиа соу йаи ма л' ацапас  (оявгстяийо)
TTITLE15=ема валоцеко циа том амдяеа 
TTITLE16=лг ле вакас  (80's DISCO MIX)
EXTD=
EXTT0=
EXTT1=
EXTT2=
EXTT3=
EXTT4=
EXTT5=
EXTT6=
EXTT7=
EXTT8=
EXTT9=
EXTT10=
EXTT11=
EXTT12=
EXTT13=
EXTT14=
EXTT15=
EXTT16=
PLAYORDER=
